
        <svg xmlns="http://www.w3.org/2000/svg" xmlns:xlink="http://www.w3.org/1999/xlink" version="1.1" width="3162.1621621621625" 
        height="100" viewBox="0 -72.97297297297298 3162.1621621621625 1045.945945945946">
			
			<g transform="scale(8.108108108108109) translate(10, 10)">
				<defs id="SvgjsDefs1123"><linearGradient id="SvgjsLinearGradient1130"><stop id="SvgjsStop1131" stop-color="#ef4136" offset="0"></stop><stop id="SvgjsStop1132" stop-color="#fbb040" offset="1"></stop></linearGradient></defs><g id="SvgjsG1124" featureKey="symbolFeature-0" transform="matrix(3.125,0,0,3.125,0,-9)" fill="url(#SvgjsLinearGradient1130)"><g xmlns="http://www.w3.org/2000/svg" transform="translate(0,-1020.3622)"><path d="m 11.5,1020.86 0,31.0001 1.99071,0 c -10e-6,-0.065 0.003,-0.1304 0.01,-0.1953 0.007,-0.064 0.0164,-0.1281 0.0293,-0.1914 0.0125,-0.064 0.0281,-0.1271 0.0469,-0.1895 0.0191,-0.062 0.0412,-0.1235 0.0664,-0.1836 0.0257,-0.06 0.0544,-0.1186 0.0859,-0.1757 0.0311,-0.057 0.065,-0.1124 0.10156,-0.1661 0.0365,-0.053 0.0756,-0.1048 0.11719,-0.1543 0.0419,-0.05 0.0862,-0.097 0.13281,-0.1425 0.0466,-0.045 0.0955,-0.088 0.14649,-0.1289 0.0514,-0.041 0.1049,-0.078 0.16015,-0.1133 0.0543,-0.035 0.11039,-0.068 0.16797,-0.098 0.0579,-0.03 0.11719,-0.056 0.17774,-0.08 0.0608,-0.023 0.12272,-0.043 0.18554,-0.06 0.0624,-0.018 0.12563,-0.032 0.18946,-0.043 0.064,-0.011 0.12855,-0.019 0.19336,-0.023 l 0.13867,0 c 0.0652,0 0.13041,0 0.19531,0.01 0.0642,0.01 0.1281,0.015 0.19141,0.027 0.0639,0.013 0.12716,0.029 0.18945,0.049 0.0623,0.019 0.12354,0.041 0.18359,0.066 0.06,0.026 0.11867,0.054 0.17578,0.086 0.057,0.031 0.11241,0.065 0.16602,0.1016 0.0533,0.036 0.10484,0.076 0.1543,0.1171 0.0497,0.042 0.0973,0.086 0.14258,0.1329 0.0454,0.047 0.0884,0.096 0.1289,0.1464 0.0404,0.052 0.0782,0.1049 0.11328,0.1602 0.0353,0.054 0.0679,0.1104 0.0977,0.168 0.0296,0.058 0.0564,0.1172 0.0801,0.1777 0.0233,0.061 0.0435,0.1227 0.0606,0.1855 0.0175,0.062 0.0318,0.1257 0.043,0.1895 0.011,0.064 0.0188,0.1286 0.0234,0.1934 0.003,0.046 0.004,0.092 0.004,0.1386 l 6.61116,0 c 0.83101,0 1.5,-0.669 1.5,-1.5 l 0,-28 c 0,-0.831 -0.66899,-1.5 -1.5,-1.5 l -6.6112,0 c 10e-6,0.065 -0.003,0.1304 -0.01,0.1953 -0.007,0.064 -0.0164,0.1281 -0.0293,0.1914 -0.0125,0.064 -0.0281,0.1271 -0.0469,0.1895 -0.0191,0.062 -0.0412,0.1235 -0.0664,0.1836 -0.0257,0.06 -0.0544,0.1186 -0.0859,0.1757 -0.0311,0.057 -0.065,0.1124 -0.10157,0.1661 -0.0365,0.053 -0.0756,0.1048 -0.11718,0.1543 -0.0419,0.05 -0.0862,0.097 -0.13282,0.1425 -0.0466,0.045 -0.0955,0.088 -0.14648,0.1289 -0.0515,0.04 -0.1049,0.078 -0.16016,0.1133 -0.0543,0.035 -0.11039,0.068 -0.16796,0.098 -0.0579,0.03 -0.1172,0.056 -0.17774,0.08 -0.0608,0.023 -0.12273,0.043 -0.18555,0.06 -0.0624,0.018 -0.12562,0.032 -0.18945,0.043 -0.064,0.011 -0.12856,0.019 -0.19336,0.023 l -0.13867,0 c -0.0652,0 -0.13041,0 -0.19531,-0.01 -0.0642,-0.01 -0.12813,-0.016 -0.19141,-0.029 -0.0639,-0.012 -0.12712,-0.028 -0.18945,-0.047 -0.0623,-0.019 -0.12355,-0.041 -0.1836,-0.066 -0.06,-0.026 -0.11866,-0.054 -0.17578,-0.086 -0.057,-0.031 -0.1124,-0.065 -0.16601,-0.1015 -0.0533,-0.036 -0.10484,-0.076 -0.1543,-0.1172 -0.0497,-0.042 -0.0973,-0.086 -0.14258,-0.1328 -0.0454,-0.047 -0.0884,-0.096 -0.1289,-0.1465 -0.0404,-0.052 -0.0782,-0.1049 -0.11329,-0.1602 -0.0353,-0.054 -0.0679,-0.1104 -0.0977,-0.1679 -0.0296,-0.058 -0.0564,-0.1172 -0.0801,-0.1778 -0.0233,-0.061 -0.0435,-0.1227 -0.0606,-0.1855 -0.0175,-0.062 -0.0318,-0.1256 -0.043,-0.1895 -0.011,-0.064 -0.0189,-0.1285 -0.0234,-0.1933 -0.003,-0.046 -0.004,-0.092 -0.004,-0.1387 z" style="" fill="none" stroke="none"></path><path style="color:;font-style:normal;font-variant:normal;font-weight:normal;font-stretch:normal;font-size:medium;line-height:normal;font-family:sans-serif;text-indent:0;text-align:start;text-decoration:none;text-decoration-line:none;text-decoration-style:solid;text-decoration-color:;letter-spacing:normal;word-spacing:normal;text-transform:none;direction:ltr;block-progression:tb;writing-mode:lr-tb;baseline-shift:baseline;text-anchor:start;white-space:normal;clip-rule:nonzero;display:inline;overflow:visible;visibility:visible;opacity:1;isolation:auto;mix-blend-mode:normal;color-interpolation:sRGB;color-interpolation-filters:linearRGB;solid-color:;solid-opacity:1;fill:url(#SvgjsLinearGradient1130);fill-opacity:1;fill-rule:nonzero;stroke:none;stroke-width:1;stroke-linecap:round;stroke-linejoin:round;stroke-miterlimit:4;stroke-dasharray:none;stroke-dashoffset:0;stroke-opacity:1;color-rendering:auto;image-rendering:auto;shape-rendering:auto;text-rendering:auto;enable-background:accumulate" d="M 3 0 C 1.3466411 0 0 1.3467 0 3 L 0 29 C 0 30.6534 1.3466411 32 3 32 L 29 32 C 30.653359 32 32 30.6534 32 29 L 32 3 C 32 1.3467 30.653359 0 29 0 L 3 0 z M 3 1 L 29 1 C 30.116661 1 31 1.8834 31 3 L 31 29 C 31 30.1167 30.116661 31 29 31 L 3 31 C 1.8833403 31 1 30.1167 1 29 L 1 3 C 1 1.8834 1.8833403 1 3 1 z M 3.75 2 C 2.7894238 2 2.0000063 2.7895 2 3.75 C 2.0000063 4.7106 2.7894238 5.5 3.75 5.5 C 4.7105761 5.5 5.4999937 4.7106 5.5 3.75 C 5.4999937 2.7895 4.7105761 2 3.75 2 z M 28.25 2 C 27.289424 2 26.500006 2.7895 26.5 3.75 C 26.500006 4.7106 27.289424 5.5 28.25 5.5 C 29.210576 5.5 29.999994 4.7106 30 3.75 C 29.999994 2.7895 29.210576 2 28.25 2 z M 3.75 3 C 4.1701384 3 4.4999972 3.3299 4.5 3.75 C 4.4999972 4.1702 4.1701384 4.5 3.75 4.5 C 3.3298616 4.5 3.0000028 4.1702 3 3.75 C 3.0000028 3.3299 3.3298616 3 3.75 3 z M 12.5 3 L 12.5 6 L 11.5 6 A 0.50005 0.50005 0 0 0 11 6.5 L 11 8 L 9.4375 8 C 8.6497856 8 8 8.6498 8 9.4375 L 8 11 L 6.5 11 A 0.50005 0.50005 0 0 0 6.0058594 11.439453 A 0.50005 0.50005 0 0 0 6.0039062 11.449219 A 0.50005 0.50005 0 0 0 6.0019531 11.46875 A 0.50005 0.50005 0 0 0 6 11.498047 A 0.50005 0.50005 0 0 0 6 11.507812 L 6 12.5 L 3 12.5 L 3 13.5 L 6 13.5 L 6 14.5 L 3 14.5 L 3 15.5 L 6 15.5 L 6 16.5 L 3 16.5 L 3 17.5 L 6 17.5 L 6 18.5 L 3 18.5 L 3 19.5 L 6 19.5 L 6 20.507812 A 0.50005 0.50005 0 0 0 6.5 21.007812 L 8 21.007812 L 8 22.5625 C 8 23.3502 8.6497214 24 9.4375 24 L 11 24 L 11 25.5 A 0.50005 0.50005 0 0 0 11.345703 25.974609 A 0.50005 0.50005 0 0 0 11.394531 25.988281 A 0.50005 0.50005 0 0 0 11.494141 26 A 0.50005 0.50005 0 0 0 11.5 26 L 12.5 26 L 12.5 29 L 13.5 29 L 13.5 26 L 14.5 26 L 14.5 29 L 15.5 29 L 15.5 26 L 16.5 26 L 16.5 29 L 17.5 29 L 17.5 26 L 18.5 26 L 18.5 29 L 19.5 29 L 19.5 26 L 20.464844 26 L 20.5 26 A 0.50005 0.50005 0 0 0 20.550781 26 A 0.50005 0.50005 0 0 0 20.599609 25.990234 A 0.50005 0.50005 0 0 0 21 25.5 L 21 24 L 22.5625 24 C 23.350278 24 24 23.3502 24 22.5625 L 24 21.007812 L 25.5 21.007812 L 25.492188 20.998047 A 0.50005 0.50005 0 0 0 26 20.5 L 26 19.5 L 29 19.5 L 29 18.5 L 26 18.5 L 26 17.5 L 29 17.5 L 29 16.5 L 26 16.5 L 26 15.5 L 29 15.5 L 29 14.5 L 26 14.5 L 26 13.5 L 29 13.5 L 29 12.5 L 26 12.5 L 26 11.5 A 0.50005 0.50005 0 0 0 25.5 11 L 24 11 L 24 9.4375 C 24 8.6498 23.350214 8 22.5625 8 L 21 8 L 21 6.5 L 20.992188 6.5097656 A 0.50005 0.50005 0 0 0 20.990234 6.4589844 A 0.50005 0.50005 0 0 0 20.5 6 L 19.5 6 L 19.5 3 L 18.5 3 L 18.5 6 L 17.5 6 L 17.5 3 L 16.5 3 L 16.5 6 L 15.5 6 L 15.5 3 L 14.5 3 L 14.5 6 L 13.5 6 L 13.5 3 L 12.5 3 z M 28.25 3 C 28.670138 3 28.999997 3.3299 29 3.75 C 28.999997 4.1702 28.670138 4.5 28.25 4.5 C 27.829862 4.5 27.500003 4.1702 27.5 3.75 C 27.500003 3.3299 27.829862 3 28.25 3 z M 12 7 L 20 7 L 20 8 L 12 8 L 12 7 z M 9.4375 9 L 22.5625 9 C 22.813552 9 23 9.1865 23 9.4375 L 23 11.498047 A 0.50005 0.50005 0 0 0 23 11.507812 L 23 20.507812 L 23 22.5625 C 23 22.8134 22.813488 23 22.5625 23 L 9.4375 23 C 9.1865116 23 9 22.8134 9 22.5625 L 9 20.5 L 9 11.5 L 9 9.4375 C 9 9.1865 9.1864474 9 9.4375 9 z M 12 11.5 A 0.5 0.5 0 0 0 11.5 12 A 0.5 0.5 0 0 0 12 12.5 A 0.5 0.5 0 0 0 12.5 12 A 0.5 0.5 0 0 0 12 11.5 z M 14 11.5 A 0.5 0.5 0 0 0 13.5 12 A 0.5 0.5 0 0 0 14 12.5 A 0.5 0.5 0 0 0 14.5 12 A 0.5 0.5 0 0 0 14 11.5 z M 16 11.5 A 0.5 0.5 0 0 0 15.5 12 A 0.5 0.5 0 0 0 16 12.5 A 0.5 0.5 0 0 0 16.5 12 A 0.5 0.5 0 0 0 16 11.5 z M 18 11.5 A 0.5 0.5 0 0 0 17.5 12 A 0.5 0.5 0 0 0 18 12.5 A 0.5 0.5 0 0 0 18.5 12 A 0.5 0.5 0 0 0 18 11.5 z M 20 11.5 A 0.5 0.5 0 0 0 19.5 12 A 0.5 0.5 0 0 0 20 12.5 A 0.5 0.5 0 0 0 20.5 12 A 0.5 0.5 0 0 0 20 11.5 z M 7 12 L 8 12 L 8 20 L 7 20 L 7 12 z M 24 12 L 25 12 L 25 20 L 24 20 L 24 12 z M 13 13.5 A 0.5 0.5 0 0 0 12.5 14 A 0.5 0.5 0 0 0 13 14.5 A 0.5 0.5 0 0 0 13.5 14 A 0.5 0.5 0 0 0 13 13.5 z M 15 13.5 A 0.5 0.5 0 0 0 14.5 14 A 0.5 0.5 0 0 0 15 14.5 A 0.5 0.5 0 0 0 15.5 14 A 0.5 0.5 0 0 0 15 13.5 z M 17 13.5 A 0.5 0.5 0 0 0 16.5 14 A 0.5 0.5 0 0 0 17 14.5 A 0.5 0.5 0 0 0 17.5 14 A 0.5 0.5 0 0 0 17 13.5 z M 19 13.5 A 0.5 0.5 0 0 0 18.5 14 A 0.5 0.5 0 0 0 19 14.5 A 0.5 0.5 0 0 0 19.5 14 A 0.5 0.5 0 0 0 19 13.5 z M 12 15.5 A 0.5 0.5 0 0 0 11.5 16 A 0.5 0.5 0 0 0 12 16.5 A 0.5 0.5 0 0 0 12.5 16 A 0.5 0.5 0 0 0 12 15.5 z M 14 15.5 A 0.5 0.5 0 0 0 13.5 16 A 0.5 0.5 0 0 0 14 16.5 A 0.5 0.5 0 0 0 14.5 16 A 0.5 0.5 0 0 0 14 15.5 z M 16 15.5 A 0.5 0.5 0 0 0 15.5 16 A 0.5 0.5 0 0 0 16 16.5 A 0.5 0.5 0 0 0 16.5 16 A 0.5 0.5 0 0 0 16 15.5 z M 18 15.5 A 0.5 0.5 0 0 0 17.5 16 A 0.5 0.5 0 0 0 18 16.5 A 0.5 0.5 0 0 0 18.5 16 A 0.5 0.5 0 0 0 18 15.5 z M 20 15.5 A 0.5 0.5 0 0 0 19.5 16 A 0.5 0.5 0 0 0 20 16.5 A 0.5 0.5 0 0 0 20.5 16 A 0.5 0.5 0 0 0 20 15.5 z M 13 17.5 A 0.5 0.5 0 0 0 12.5 18 A 0.5 0.5 0 0 0 13 18.5 A 0.5 0.5 0 0 0 13.5 18 A 0.5 0.5 0 0 0 13 17.5 z M 15 17.5 A 0.5 0.5 0 0 0 14.5 18 A 0.5 0.5 0 0 0 15 18.5 A 0.5 0.5 0 0 0 15.5 18 A 0.5 0.5 0 0 0 15 17.5 z M 17 17.5 A 0.5 0.5 0 0 0 16.5 18 A 0.5 0.5 0 0 0 17 18.5 A 0.5 0.5 0 0 0 17.5 18 A 0.5 0.5 0 0 0 17 17.5 z M 19 17.5 A 0.5 0.5 0 0 0 18.5 18 A 0.5 0.5 0 0 0 19 18.5 A 0.5 0.5 0 0 0 19.5 18 A 0.5 0.5 0 0 0 19 17.5 z M 12 19.5 A 0.5 0.5 0 0 0 11.5 20 A 0.5 0.5 0 0 0 12 20.5 A 0.5 0.5 0 0 0 12.5 20 A 0.5 0.5 0 0 0 12 19.5 z M 14 19.5 A 0.5 0.5 0 0 0 13.5 20 A 0.5 0.5 0 0 0 14 20.5 A 0.5 0.5 0 0 0 14.5 20 A 0.5 0.5 0 0 0 14 19.5 z M 16 19.5 A 0.5 0.5 0 0 0 15.5 20 A 0.5 0.5 0 0 0 16 20.5 A 0.5 0.5 0 0 0 16.5 20 A 0.5 0.5 0 0 0 16 19.5 z M 18 19.5 A 0.5 0.5 0 0 0 17.5 20 A 0.5 0.5 0 0 0 18 20.5 A 0.5 0.5 0 0 0 18.5 20 A 0.5 0.5 0 0 0 18 19.5 z M 20 19.5 A 0.5 0.5 0 0 0 19.5 20 A 0.5 0.5 0 0 0 20 20.5 A 0.5 0.5 0 0 0 20.5 20 A 0.5 0.5 0 0 0 20 19.5 z M 12 24 L 20 24 L 20 25 L 12 25 L 12 24 z M 3.75 26.5 C 2.7894238 26.5 2.0000063 27.2895 2 28.25 C 2.0000063 29.2106 2.7894238 30 3.75 30 C 4.7105761 30 5.4999937 29.2106 5.5 28.25 C 5.4999937 27.2895 4.7105761 26.5 3.75 26.5 z M 28.25 26.5 C 27.289424 26.5 26.500006 27.2895 26.5 28.25 C 26.500006 29.2106 27.289424 30 28.25 30 C 29.210576 30 29.999994 29.2106 30 28.25 C 29.999994 27.2895 29.210576 26.5 28.25 26.5 z M 3.75 27.5 C 4.1701384 27.5 4.4999972 27.8299 4.5 28.25 C 4.4999972 28.6702 4.1701384 29 3.75 29 C 3.3298616 29 3.0000028 28.6702 3 28.25 C 3.0000028 27.8299 3.3298616 27.5 3.75 27.5 z M 28.25 27.5 C 28.670138 27.5 28.999997 27.8299 29 28.25 C 28.999997 28.6702 28.670138 29 28.25 29 C 27.829862 29 27.500003 28.6702 27.5 28.25 C 27.500003 27.8299 27.829862 27.5 28.25 27.5 z " transform="translate(0,1020.3622)"></path></g></g><g id="SvgjsG1125" featureKey="nameFeature-0" transform="matrix(1.1140848398208618,0,0,1.1140848398208618,118.66248457245125,3.154101785765649)" fill="#ffffff"><path d="M1.96 48.6 c-0.6 0 -0.96 -1.36 -0.64 -1.4 c1.8 -0.2 3.72 -2.24 3.72 -6.96 l0 -23.4 c0 -2.8 -1.6 -3.36 -3.32 -3.6 c-0.32 -0.04 -0.08 -1.24 0.24 -1.24 l10.96 0 c0.32 0 0.56 1.2 0.24 1.24 c-1.72 0.24 -3.32 0.8 -3.32 3.6 l0 23.4 c0 4.04 -5.12 8.36 -7.88 8.36 z M16.32 40.08 c-0.4 0.04 -0.56 -1.36 -0.24 -1.44 c2.32 -0.6 4.12 -0.96 4.12 -3.92 l0 -17.76 c0 -2.56 -1.64 -3.24 -3.36 -3.68 c-0.32 -0.08 -0.12 -1.4 0.2 -1.36 c2.92 0.32 7.96 0.24 10.4 0.24 c3.64 0 6.28 -0.16 9.56 -0.24 c0.96 0 0.96 0.64 0.76 1.56 l-0.96 3.8 c-0.12 0.56 -1.12 0.56 -1.28 0 c-0.6 -1.96 -1.8 -3.08 -6.8 -3.08 c-2.8 0 -3.72 0.72 -3.72 2.8 l0 6.52 c0 1.04 0.52 1.24 1.32 1.24 l0.88 0 c3.24 0 6.04 -0.32 7.68 -1.8 c0.4 -0.36 1.28 -0.28 0.92 0.52 l-2.28 5.04 c-0.32 0.72 -0.92 0.64 -1.36 0.04 c-0.92 -1.28 -2.96 -1.8 -5.28 -1.8 l-0.56 0 c-0.8 0 -1.32 0.2 -1.32 1.24 l0 6.72 c0 2.28 0.96 3.12 4.28 3.12 c6.04 0 8.44 -2.76 9.4 -4.28 c0.28 -0.44 1.36 -0.24 1.36 0.44 c0 2.04 -1.72 6.08 -4.24 6.08 c-2.24 -0.12 -4.44 -0.24 -7.8 -0.24 c-3.68 0 -8.04 -0.12 -11.68 0.24 z M78.88 38.64 c0.32 0.04 0.08 1.36 -0.2 1.36 l-10.44 0 c-0.28 0 -0.48 -1.32 -0.24 -1.36 c1.68 -0.28 2.92 -1.08 2.8 -3.6 l-0.76 -13.44 l-6.48 13.2 c-0.84 1.72 -1.48 3.48 -1.6 4.12 c-0.08 0.48 -0.92 0.72 -1.56 0.72 c-0.6 0 -1 -0.24 -1.24 -0.72 l-9.24 -17.52 l-0.6 13.64 c-0.12 2.8 1.52 3.44 2.8 3.6 c0.32 0.04 0.08 1.36 -0.2 1.36 l-8.28 0 c-0.32 0 -0.56 -1.32 -0.24 -1.36 c1.72 -0.2 3.16 -0.8 3.32 -3.6 l1.28 -22.96 c0.04 -0.68 1.56 -0.72 1.96 0 l11.6 21.68 l10.76 -21.68 c0.36 -0.72 1.96 -0.68 2 0 l1.28 22.96 c0.16 2.8 1.6 3.4 3.28 3.6 z M111.52 38.64 c0.56 0.08 0.4 1.36 -0.08 1.36 l-10.56 0 c-0.52 0 -0.56 -1.28 -0.12 -1.36 c1.48 -0.28 3.08 -0.8 1.6 -4.24 l-0.44 -1 c-0.4 -0.96 -1.08 -1.04 -2.28 -1.04 l-8.16 0 c-1.2 0 -1.88 0.08 -2.28 1.04 l-0.4 1 c-1.4 3.44 0.12 3.96 2.04 4.24 c0.52 0.08 0.4 1.36 -0.12 1.36 l-8.64 0 c-0.48 0 -0.6 -1.28 -0.12 -1.36 c1.64 -0.28 2.6 -0.84 4.08 -4.24 l6.76 -15.52 c1.56 -3.52 2.04 -5.16 2.04 -6.68 c0 -0.24 2.8 -0.88 2.92 -0.6 l9.76 22.76 c1.44 3.4 2.4 4.04 4 4.28 z M99.36 30.119999999999997 c0.56 0 1.16 -0.08 0.92 -0.64 l-4.68 -11.2 l-4.72 11.2 c-0.24 0.56 0.36 0.64 0.92 0.64 l7.56 0 z M143.88 39 c0.32 0 0.24 1.08 0 1.16 c-2.52 0.84 -6 0.72 -8.4 -2.36 l-6.16 -7.92 c-1.72 -2.24 -3.76 -2.56 -6.56 -2.6 l0 7.76 c0 2.8 1.92 3.28 4.48 3.6 c0.28 0.04 0.08 1.36 -0.24 1.36 l-12.12 0 c-0.32 0 -0.56 -1.32 -0.24 -1.36 c2.04 -0.28 3.32 -1.08 3.32 -3.6 l0 -17.84 c0 -2.64 -1.4 -3.4 -3.32 -3.92 c-0.32 -0.08 -0.12 -1.4 0.24 -1.36 c1.56 0.2 3.32 0.24 4.6 0.24 c2.96 0 5.72 -0.24 7.64 -0.24 c6.04 0 10.08 2.48 10.08 7.4 c0 4.64 -3.76 6.92 -7.12 7.12 l0 0.2 c1.6 0 2.76 0.68 4.52 2.88 l5.96 7.48 c1.24 1.56 2.44 2 3.32 2 z M123.91999999999999 25.439999999999998 c5.96 0 8.24 -1.04 8.24 -5.04 c0 -4.28 -2.72 -6.4 -6.28 -6.4 c-2.36 0 -3.12 0.96 -3.12 3.2 l0 8.24 l1.16 0 z M152.24 40 c-0.36 0 -0.6 -1.28 -0.28 -1.32 c2.76 -0.36 4.6 -0.92 4.6 -3.08 l0 -19.72 c0 -1 -0.36 -1.32 -1.32 -1.32 l-1.08 0 c-3.8 0 -5.92 0.88 -6.72 2.6 c-0.36 0.8 -1.72 0.68 -1.56 0 c0.36 -1.44 0.68 -2.68 0.92 -4.8 c0.08 -0.76 0.52 -0.72 1.24 -0.64 c1.84 0.2 3.52 0.28 11.12 0.28 s10.28 -0.08 12.2 -0.28 c0.72 -0.08 1.4 -0.12 1.16 0.64 c-0.6 1.88 -1 3.36 -1.24 4.8 c-0.12 0.68 -1.2 0.72 -1.36 0 c-0.4 -1.68 -2.16 -2.6 -5.6 -2.6 l-1.24 0 c-0.96 0 -1.56 0.32 -1.56 1.32 l0 19.72 c0 2.16 1.84 2.72 4.6 3.08 c0.32 0.04 0.08 1.32 -0.28 1.32 l-13.6 0 z M175.16000000000003 40.08 c-0.4 0.04 -0.56 -1.36 -0.24 -1.44 c2.32 -0.6 4.12 -0.96 4.12 -3.92 l0 -17.76 c0 -2.56 -1.64 -3.24 -3.36 -3.68 c-0.32 -0.08 -0.12 -1.4 0.2 -1.36 c2.92 0.32 7.96 0.24 10.4 0.24 c3.64 0 6.28 -0.16 9.56 -0.24 c0.96 0 0.96 0.64 0.76 1.56 l-0.96 3.8 c-0.12 0.56 -1.12 0.56 -1.28 0 c-0.6 -1.96 -1.8 -3.08 -6.8 -3.08 c-2.8 0 -3.72 0.72 -3.72 2.8 l0 6.52 c0 1.04 0.52 1.24 1.32 1.24 l0.88 0 c3.24 0 6.04 -0.32 7.68 -1.8 c0.4 -0.36 1.28 -0.28 0.92 0.52 l-2.28 5.04 c-0.32 0.72 -0.92 0.64 -1.36 0.04 c-0.92 -1.28 -2.96 -1.8 -5.28 -1.8 l-0.56 0 c-0.8 0 -1.32 0.2 -1.32 1.24 l0 6.72 c0 2.28 0.96 3.12 4.28 3.12 c6.04 0 8.44 -2.76 9.4 -4.28 c0.28 -0.44 1.36 -0.24 1.36 0.44 c0 2.04 -1.72 6.08 -4.24 6.08 c-2.24 -0.12 -4.44 -0.24 -7.8 -0.24 c-3.68 0 -8.04 -0.12 -11.68 0.24 z M201.88000000000002 40.08 c-0.4 0.04 -0.56 -1.36 -0.24 -1.44 c2.32 -0.6 4.12 -0.96 4.12 -3.92 l0 -17.76 c0 -2.8 -1.64 -3.36 -3.36 -3.6 c-0.32 -0.04 -0.08 -1.36 0.2 -1.36 l11.04 0 c0.28 0 0.48 1.32 0.2 1.36 c-1.68 0.2 -3.28 0.8 -3.28 3.6 l0 17.76 c0 2.28 0.96 3.12 4.28 3.12 c6.04 0 8.44 -2.76 9.4 -4.28 c0.28 -0.44 1.36 -0.24 1.36 0.44 c0 2.04 -1.72 6.08 -4.24 6.08 c-2.24 -0.12 -4.44 -0.24 -7.8 -0.24 c-3.68 0 -8.04 -0.12 -11.68 0.24 z"></path></g><g id="SvgjsG1126" featureKey="sloganFeature-0" transform="matrix(0.5346487760543823,0,0,0.5346487760543823,119.0236244191132,67.95611081732912)" fill="#ffffff"><path d="M1.8262 20 l0 -14.111 l2.9297 0 l0 14.111 l-2.9297 0 z M30.5421484375 5.888999999999999 l2.9199 0 l0 14.111 l-3.3887 0 l-6.25 -10.088 l0 10.088 l-2.9199 0 l0 -14.111 l3.3496 0 l6.2891 10.029 l0 -10.029 z M73.5693640625 20.19531 c-4.1504 0 -7.2168 -2.8223 -7.2168 -7.2559 s3.0664 -7.2461 7.2168 -7.2461 c3.1445 0 5.6641 1.6113 6.6699 4.2871 l-2.7344 0.99609 c-0.625 -1.6406 -2.1191 -2.5879 -3.9355 -2.5879 c-2.4316 0 -4.2969 1.6992 -4.2969 4.5508 s1.8652 4.5605 4.2969 4.5605 c1.8164 0 3.3105 -0.95703 3.9355 -2.5977 l2.7344 0.99609 c-1.0059 2.6758 -3.5254 4.2969 -6.6699 4.2969 z M101.3965125 20.19531 c-4.1504 0 -7.2168 -2.832 -7.2168 -7.2559 c0 -4.4336 3.0664 -7.2461 7.2168 -7.2461 c4.1406 0 7.207 2.8125 7.207 7.2461 c0 4.4238 -3.0664 7.2559 -7.207 7.2559 z M101.3965125 17.5098 c2.4316 0 4.2969 -1.709 4.2969 -4.5703 c0 -2.8516 -1.8652 -4.5508 -4.2969 -4.5508 s-4.2969 1.6992 -4.2969 4.5508 c0 2.8613 1.8652 4.5703 4.2969 4.5703 z M123.8037390625 20 l0 -14.111 l5.1074 0 c4.502 0 6.7285 2.832 6.7285 7.0508 c0 4.2285 -2.2266 7.0605 -6.7285 7.0605 l-5.1074 0 z M126.7334390625 17.4121 l2.0313 0 c2.5977 0 3.7891 -1.6211 3.7891 -4.4727 s-1.1914 -4.4727 -3.7891 -4.4727 l-2.0313 0 l0 8.9453 z M159.0725 8.467 l-5.2344 0 l0 3.2031 l4.6387 0 l0 2.5488 l-4.6387 0 l0 3.1934 l5.2344 0 l0 2.5879 l-8.1836 0 l0 -14.111 l8.1836 0 l0 2.5781 z M194.58985 20 l-3.6914 -14.111 l3.0469 0 l2.7539 10.684 l3.1543 -10.684 l2.4707 0 l3.1348 10.684 l2.7832 -10.684 l3.0371 0 l-3.6914 14.111 l-3.7695 0 l-2.7344 -8.7207 l-2.7246 8.7207 l-3.7695 0 z M234.2238671875 8.467 l-5.2344 0 l0 3.2031 l4.6387 0 l0 2.5488 l-4.6387 0 l0 3.1934 l5.2344 0 l0 2.5879 l-8.1836 0 l0 -14.111 l8.1836 0 l0 2.5781 z M275.6301171875 5.888999999999999 l0 2.5781 l-3.3496 0 l0 11.533 l-2.9004 0 l0 -11.533 l-3.3691 0 l0 -2.5781 l9.6191 0 z M297.802690625 20 l-3.6719 -6.2109 l-0.84961 0 l0 6.2109 l-2.9297 0 l0 -14.111 l5.1172 0 c3.1934 0 4.541 1.8848 4.541 4.2188 c0 1.8945 -1.0742 3.125 -2.9883 3.5352 l4.248 6.3574 l-3.4668 0 z M293.281290625 8.32 l0 3.3691 l1.7285 0 c1.5625 0 2.1973 -0.66406 2.1973 -1.6797 c0 -1.0059 -0.63477 -1.6895 -2.1973 -1.6895 l-1.7285 0 z M321.1474796875 20.19531 c-3.0957 0 -5.5176 -1.582 -5.5176 -5.1367 l0 -9.1699 l2.9297 0 l0 8.7695 c0 2.1484 1.1426 2.9492 2.5879 2.9492 c1.4551 0 2.6074 -0.81055 2.6074 -2.9492 l0 -8.7695 l2.9297 0 l0 9.1699 c0 3.5547 -2.4316 5.1367 -5.5371 5.1367 z M347.23635625 20.19531 c-3.0273 0 -5.3906 -1.4551 -5.8203 -4.1016 l3.0273 -0.69336 c0.19531 1.582 1.3574 2.4023 2.9102 2.4023 c1.1914 0 2.1387 -0.52734 2.1289 -1.7188 c-0.0097656 -1.3281 -1.5723 -1.748 -3.291 -2.2754 c-2.0703 -0.64453 -4.2871 -1.4063 -4.2871 -4.0039 c0 -2.627 2.1484 -4.1113 4.9805 -4.1113 c2.4805 0 4.9805 1.0059 5.5469 3.7109 l-2.832 0.70313 c-0.26367 -1.4063 -1.2109 -2.0215 -2.5391 -2.0215 c-1.1816 0 -2.1875 0.48828 -2.1875 1.6504 c0 1.084 1.3867 1.4453 2.9883 1.9238 c2.1289 0.64453 4.6484 1.4648 4.6484 4.2773 c0 2.998 -2.5098 4.2578 -5.2734 4.2578 z M375.9035546875 5.888999999999999 l0 2.5781 l-3.3496 0 l0 11.533 l-2.9004 0 l0 -11.533 l-3.3691 0 l0 -2.5781 l9.6191 0 z"></path></g>
			</g>
		</svg>
	